<?xml version="1.0" encoding="UTF-8" standalone="no"?>
<!-- Created with Inkscape (http://www.inkscape.org/) -->

<svg
   width="130.30579mm"
   height="121.28817mm"
   viewBox="0 0 130.30579 121.28816"
   version="1.1"
   id="svg5"
   sodipodi:docname="directional_derivative.svg"
   inkscape:version="1.2.2 (732a01da63, 2022-12-09)"
   xmlns:inkscape="http://www.inkscape.org/namespaces/inkscape"
   xmlns:sodipodi="http://sodipodi.sourceforge.net/DTD/sodipodi-0.dtd"
   xmlns:xlink="http://www.w3.org/1999/xlink"
   xmlns="http://www.w3.org/2000/svg"
   xmlns:svg="http://www.w3.org/2000/svg"
   xmlns:ns2="http://www.iki.fi/pav/software/textext/">
  <sodipodi:namedview
     id="namedview7"
     pagecolor="#505050"
     bordercolor="#ffffff"
     borderopacity="1"
     inkscape:showpageshadow="false"
     inkscape:pageopacity="0"
     inkscape:pagecheckerboard="1"
     inkscape:deskcolor="#505050"
     inkscape:document-units="mm"
     showgrid="false"
     showguides="false"
     inkscape:zoom="0.5946522"
     inkscape:cx="126.96497"
     inkscape:cy="317.83284"
     inkscape:window-width="1366"
     inkscape:window-height="745"
     inkscape:window-x="-8"
     inkscape:window-y="-8"
     inkscape:window-maximized="1"
     inkscape:current-layer="layer1">
    <inkscape:grid
       type="xygrid"
       id="grid3353"
       originx="-48.480728"
       originy="-36.015559" />
  </sodipodi:namedview>
  <defs
     id="defs2">
    <marker
       style="overflow:visible"
       id="Arrow2"
       refX="0"
       refY="0"
       orient="152"
       inkscape:stockid="Arrow2"
       markerWidth="5.6999998"
       markerHeight="4.1454544"
       viewBox="0 0 7.7 5.6"
       inkscape:isstock="true"
       inkscape:collect="always"
       preserveAspectRatio="xMidYMid"
       markerUnits="userSpaceOnUse">
      <path
         d="M 6.3,-2.8 -1.4,0 6.3,2.8 C 4.9,1.169 4.9,-1.162 6.3,-2.8 Z"
         style="fill:context-stroke;fill-rule:evenodd;stroke:none;stroke-width:0.7"
         id="arrow2L" />
    </marker>
    <linearGradient
       inkscape:collect="always"
       id="linearGradient4248">
      <stop
         style="stop-color:#ffffff;stop-opacity:1"
         offset="0"
         id="stop4244" />
      <stop
         style="stop-color:#ffff00;stop-opacity:1"
         offset="1"
         id="stop4246" />
    </linearGradient>
    <inkscape:path-effect
       effect="bspline"
       id="path-effect13918"
       is_visible="true"
       lpeversion="1"
       weight="33.333333"
       steps="2"
       helper_size="0"
       apply_no_weight="true"
       apply_with_weight="true"
       only_selected="false" />
    <linearGradient
       inkscape:collect="always"
       xlink:href="#linearGradient4248"
       id="linearGradient4250"
       x1="32.919178"
       y1="147.92172"
       x2="168.20271"
       y2="71.982498"
       gradientUnits="userSpaceOnUse"
       gradientTransform="matrix(0.71538537,0,0,0.71538537,32.110288,27.177948)" />
    <marker
       style="overflow:visible"
       id="Arrow2-8"
       refX="0"
       refY="0"
       orient="-27"
       inkscape:stockid="Arrow2"
       markerWidth="5.6999998"
       markerHeight="4.1454544"
       viewBox="0 0 7.7 5.6"
       inkscape:isstock="true"
       inkscape:collect="always"
       preserveAspectRatio="xMidYMid"
       markerUnits="userSpaceOnUse">
      <path
         d="M 6.3,-2.8 -1.4,0 6.3,2.8 C 4.9,1.169 4.9,-1.162 6.3,-2.8 Z"
         style="fill:context-stroke;fill-rule:evenodd;stroke:none;stroke-width:0.7"
         id="arrow2L-2" />
    </marker>
    <marker
       style="overflow:visible"
       id="Arrow2-2"
       refX="0"
       refY="0"
       orient="152"
       inkscape:stockid="Arrow2"
       markerWidth="5.6999998"
       markerHeight="4.1454544"
       viewBox="0 0 7.7 5.6"
       inkscape:isstock="true"
       inkscape:collect="always"
       preserveAspectRatio="xMidYMid"
       markerUnits="userSpaceOnUse">
      <path
         d="M 6.3,-2.8 -1.4,0 6.3,2.8 C 4.9,1.169 4.9,-1.162 6.3,-2.8 Z"
         style="fill:context-stroke;fill-rule:evenodd;stroke:none;stroke-width:0.7"
         id="arrow2L-9" />
    </marker>
  </defs>
  <g
     inkscape:label="Layer 1"
     inkscape:groupmode="layer"
     id="layer1"
     transform="translate(-48.480731,-36.015575)"
     style="display:inline">
    <path
       style="fill:url(#linearGradient4250);fill-opacity:1;stroke:#000000;stroke-width:0.752585;stroke-linecap:butt;stroke-linejoin:miter;stroke-dasharray:none;stroke-opacity:1"
       d="m 93.505097,69.873412 c -2.762318,-1.691893 -5.339216,-3.323584 -8.541009,-4.00593 -1.7313,-0.36896 -3.864333,-0.197013 -5.593229,-0.197013 -2.148651,0 -4.359735,0.260345 -6.273486,1.313419 -2.098307,1.154635 -4.38719,4.136367 -5.44206,6.173072 -0.694407,1.340743 -0.705588,1.70871 -1.360513,3.217878 -0.41151,0.948251 -0.98068,1.838558 -1.284932,2.823851 -0.579235,1.875803 -0.673331,3.728396 -0.982594,5.647703 -0.274805,1.705445 -0.706929,3.322157 -1.133762,4.990994 -0.437133,1.709103 -0.496841,3.508096 -1.058179,5.188007 -0.738639,2.210518 -1.695505,3.40278 -2.494276,5.516367 -0.61188,1.61905 -0.768985,3.34731 -1.284933,4.99099 -0.311489,0.99232 -1.057206,2.89619 -1.360515,3.74324 -1.453664,4.05968 -2.236906,8.34184 -2.56986,12.60882 -0.129053,1.65386 -0.151168,3.26612 -0.151168,4.92533 0,0.54726 -0.107963,1.10454 0,1.64178 0.306005,1.52271 1.784622,5.53846 2.796614,6.7641 1.320976,1.59987 3.886816,4.5328 5.593228,5.77905 4.302494,3.14226 9.492755,4.33299 14.587742,5.71337 3.996594,1.0828 7.960711,2.18513 12.093469,2.69251 3.979393,0.48856 8.012627,0.56753 12.017886,0.59104 5.79931,0.0341 11.59459,-0.0441 17.38435,-0.39403 2.60137,-0.15722 6.68834,-0.45464 9.22128,-0.91939 5.2082,-0.95562 10.53641,-2.28588 15.49475,-4.13727 4.35052,-1.62444 8.18828,-4.44582 11.94229,-7.02679 1.12138,-0.77097 2.23425,-1.55414 3.32571,-2.36416 1.68791,-1.25266 3.56233,-2.35115 4.91297,-3.94025 3.10062,-3.64807 6.08941,-8.15238 7.48283,-12.74018 0.72148,-2.37544 0.80712,-4.97078 0.83142,-7.42081 0.0159,-1.59792 0,-3.19599 0,-4.79399 0,-0.94128 0.12705,-1.8906 0,-2.82384 -0.31809,-2.33667 -1.54295,-5.381407 -2.41869,-7.552165 -1.50827,-3.738654 -3.59287,-6.925129 -6.27349,-9.981987 -0.97531,-1.112214 -2.31349,-2.58864 -3.47686,-3.546232 -2.80315,-2.307313 -5.99762,-4.154542 -9.22126,-5.844717 -2.09518,-1.098504 -4.49996,-2.583225 -6.87817,-3.152205 -3.70864,-0.887282 -10.07573,-0.712908 -14.05865,-0.459697 -3.77711,0.240124 -7.55368,0.262683 -11.33763,0.262683 -1.86039,0 -3.73413,0.06212 -5.59323,0 -1.12701,-0.03766 -0.56458,-0.127471 -1.96519,-0.262683 -1.91386,-0.184762 -4.54195,0.102675 -6.34907,-0.525369 -0.46529,-0.161705 -0.86267,-0.276057 -1.36051,-0.394025 -0.26603,-0.06303 -0.7652,-0.519163 -0.90701,-0.591039 -0.44066,-0.223337 -0.96143,-0.24968 -1.4361,-0.394026 C 99.855151,70.829223 99.581308,70.585777 99.022743,70.464449 98.753216,70.405909 98.528665,70.221384 98.2669,70.136095 97.897469,70.01573 97.499544,69.953 97.133139,69.873412 c -0.09252,-0.02009 -0.159304,-0.270968 -0.302337,-0.262685 -1.110273,0.06431 -2.217136,0.175124 -3.325705,0.262685 z"
       id="path4373" />
    <path
       style="display:inline;fill:none;stroke:#000000;stroke-width:0.728827;stroke-linecap:round;stroke-linejoin:miter;stroke-miterlimit:0;stroke-dasharray:2.18648, 2.18648;stroke-dashoffset:0;stroke-opacity:1;marker-end:url(#Arrow2-8)"
       d="m 105.24986,111.10172 -38.321513,20.06436 0.190177,-0.071"
       id="path11727-9" />
    <path
       style="fill:none;stroke:#000000;stroke-width:0.762064;stroke-linecap:round;stroke-linejoin:miter;stroke-miterlimit:0;stroke-dasharray:none;stroke-opacity:1;marker-end:url(#Arrow2)"
       d="m 105.61016,110.86547 38.71666,-21.712381 -0.19214,0.07686"
       id="path11727" />
    <g
       transform="matrix(1.6393961,0,0,1.5580962,103.00933,116.62573)"
       ns2:version="1.8.1"
       ns2:texconverter="pdflatex"
       ns2:pdfconverter="inkscape"
       ns2:text="$a$"
       ns2:preamble="C:\Users\BIKRAM HALDER\AppData\Roaming\inkscape\extensions\textext\default_packages.tex"
       ns2:scale="3.091727230748457"
       ns2:alignment="middle center"
       ns2:stroke-to-path="0"
       ns2:jacobian_sqrt="1.09069"
       id="g14930">
      <defs
         id="id-fdb2223e-420c-4313-9a58-0ed422556692">
        <g
           id="id-30ef97e8-a4c5-4642-89e5-d853fc746d30">
          <g
             id="id-1cfe7aef-44b6-4ee7-b02b-238a7855492d" />
          <g
             id="id-c18bbbb0-f169-415e-99d7-d18944ec70db">
            <path
               d="M 3.71875,-3.765625 C 3.53125,-4.140625 3.25,-4.40625 2.796875,-4.40625 c -1.15625,0 -2.390625,1.46875 -2.390625,2.921875 0,0.9375 0.546875,1.59375 1.3125,1.59375 0.203125,0 0.703125,-0.046875 1.296875,-0.75 0.078125,0.421875 0.4375,0.75 0.90625,0.75 0.359375,0 0.578125,-0.234375 0.75,-0.546875 0.15625,-0.359375 0.296875,-0.96875 0.296875,-0.984375 0,-0.109375 -0.09375,-0.109375 -0.125,-0.109375 -0.09375,0 -0.109375,0.046875 -0.140625,0.1875 -0.171875,0.640625 -0.34375,1.234375 -0.75,1.234375 -0.28125,0 -0.296875,-0.265625 -0.296875,-0.453125 0,-0.21875 0.015625,-0.3125 0.125,-0.75 C 3.890625,-1.71875 3.90625,-1.828125 4,-2.203125 L 4.359375,-3.59375 c 0.0625,-0.28125 0.0625,-0.296875 0.0625,-0.34375 0,-0.171875 -0.109375,-0.265625 -0.28125,-0.265625 -0.25,0 -0.390625,0.21875 -0.421875,0.4375 z M 3.078125,-1.1875 C 3.015625,-1 3.015625,-0.984375 2.875,-0.8125 2.4375,-0.265625 2.03125,-0.109375 1.75,-0.109375 c -0.5,0 -0.640625,-0.546875 -0.640625,-0.9375 0,-0.5 0.3125,-1.71875 0.546875,-2.1875 0.3125,-0.578125 0.75,-0.953125 1.15625,-0.953125 0.640625,0 0.78125,0.8125 0.78125,0.875 0,0.0625 -0.015625,0.125 -0.03125,0.171875 z m 0,0"
               id="id-c6c7e98c-8282-4324-8685-f67c77924b54" />
          </g>
        </g>
      </defs>
      <g
         fill="#000000"
         fill-opacity="1"
         id="id-df05d5db-6ece-4592-9c86-c95c8a1a2908"
         transform="translate(-149.118,-130.359)">
        <g
           transform="translate(148.712,134.765)"
           id="g14927">
          <path
             d="M 3.71875,-3.765625 C 3.53125,-4.140625 3.25,-4.40625 2.796875,-4.40625 c -1.15625,0 -2.390625,1.46875 -2.390625,2.921875 0,0.9375 0.546875,1.59375 1.3125,1.59375 0.203125,0 0.703125,-0.046875 1.296875,-0.75 0.078125,0.421875 0.4375,0.75 0.90625,0.75 0.359375,0 0.578125,-0.234375 0.75,-0.546875 0.15625,-0.359375 0.296875,-0.96875 0.296875,-0.984375 0,-0.109375 -0.09375,-0.109375 -0.125,-0.109375 -0.09375,0 -0.109375,0.046875 -0.140625,0.1875 -0.171875,0.640625 -0.34375,1.234375 -0.75,1.234375 -0.28125,0 -0.296875,-0.265625 -0.296875,-0.453125 0,-0.21875 0.015625,-0.3125 0.125,-0.75 C 3.890625,-1.71875 3.90625,-1.828125 4,-2.203125 L 4.359375,-3.59375 c 0.0625,-0.28125 0.0625,-0.296875 0.0625,-0.34375 0,-0.171875 -0.109375,-0.265625 -0.28125,-0.265625 -0.25,0 -0.390625,0.21875 -0.421875,0.4375 z M 3.078125,-1.1875 C 3.015625,-1 3.015625,-0.984375 2.875,-0.8125 2.4375,-0.265625 2.03125,-0.109375 1.75,-0.109375 c -0.5,0 -0.640625,-0.546875 -0.640625,-0.9375 0,-0.5 0.3125,-1.71875 0.546875,-2.1875 0.3125,-0.578125 0.75,-0.953125 1.15625,-0.953125 0.640625,0 0.78125,0.8125 0.78125,0.875 0,0.0625 -0.015625,0.125 -0.03125,0.171875 z m 0,0"
             id="id-e35eb558-59ab-4ed5-aa45-1ab21b815947" />
        </g>
      </g>
    </g>
    <g
       transform="matrix(1.6393961,0,0,1.5580962,129.64662,77.011168)"
       ns2:version="1.8.1"
       ns2:texconverter="pdflatex"
       ns2:pdfconverter="inkscape"
       ns2:text="$a+tu$"
       ns2:preamble="C:\Users\BIKRAM HALDER\AppData\Roaming\inkscape\extensions\textext\default_packages.tex"
       ns2:scale="3.091727230748457"
       ns2:alignment="middle center"
       ns2:stroke-to-path="0"
       ns2:jacobian_sqrt="1.09069"
       id="g17277">
      <defs
         id="id-316e6fd5-47d3-48d0-893e-19e658d3c169">
        <g
           id="id-e9f9550f-cd4a-48cb-8b99-d444111c5be8">
          <g
             id="id-2723e786-1280-42ea-9902-09606f135d3a" />
          <g
             id="id-d829dced-9578-406c-921f-c7aaabd63216">
            <path
               d="M 3.71875,-3.765625 C 3.53125,-4.140625 3.25,-4.40625 2.796875,-4.40625 c -1.15625,0 -2.390625,1.46875 -2.390625,2.921875 0,0.9375 0.546875,1.59375 1.3125,1.59375 0.203125,0 0.703125,-0.046875 1.296875,-0.75 0.078125,0.421875 0.4375,0.75 0.90625,0.75 0.359375,0 0.578125,-0.234375 0.75,-0.546875 0.15625,-0.359375 0.296875,-0.96875 0.296875,-0.984375 0,-0.109375 -0.09375,-0.109375 -0.125,-0.109375 -0.09375,0 -0.109375,0.046875 -0.140625,0.1875 -0.171875,0.640625 -0.34375,1.234375 -0.75,1.234375 -0.28125,0 -0.296875,-0.265625 -0.296875,-0.453125 0,-0.21875 0.015625,-0.3125 0.125,-0.75 C 3.890625,-1.71875 3.90625,-1.828125 4,-2.203125 L 4.359375,-3.59375 c 0.0625,-0.28125 0.0625,-0.296875 0.0625,-0.34375 0,-0.171875 -0.109375,-0.265625 -0.28125,-0.265625 -0.25,0 -0.390625,0.21875 -0.421875,0.4375 z M 3.078125,-1.1875 C 3.015625,-1 3.015625,-0.984375 2.875,-0.8125 2.4375,-0.265625 2.03125,-0.109375 1.75,-0.109375 c -0.5,0 -0.640625,-0.546875 -0.640625,-0.9375 0,-0.5 0.3125,-1.71875 0.546875,-2.1875 0.3125,-0.578125 0.75,-0.953125 1.15625,-0.953125 0.640625,0 0.78125,0.8125 0.78125,0.875 0,0.0625 -0.015625,0.125 -0.03125,0.171875 z m 0,0"
               id="id-4b5fc5f9-75b4-482f-9d6b-4b8c1cd018c4" />
          </g>
          <g
             id="id-57a0c277-015b-4584-ac08-2909c25cd1bc">
            <path
               d="m 2.046875,-3.984375 h 0.9375 c 0.203125,0 0.3125,0 0.3125,-0.203125 0,-0.109375 -0.109375,-0.109375 -0.28125,-0.109375 h -0.875 C 2.5,-5.71875 2.546875,-5.90625 2.546875,-5.96875 c 0,-0.171875 -0.125,-0.265625 -0.296875,-0.265625 -0.03125,0 -0.3125,0 -0.390625,0.359375 L 1.46875,-4.296875 h -0.9375 c -0.203125,0 -0.296875,0 -0.296875,0.1875 0,0.125 0.078125,0.125 0.28125,0.125 h 0.875 C 0.671875,-1.15625 0.625,-0.984375 0.625,-0.8125 0.625,-0.265625 1,0.109375 1.546875,0.109375 2.5625,0.109375 3.125,-1.34375 3.125,-1.421875 3.125,-1.53125 3.046875,-1.53125 3.015625,-1.53125 2.921875,-1.53125 2.90625,-1.5 2.859375,-1.390625 2.4375,-0.34375 1.90625,-0.109375 1.5625,-0.109375 c -0.203125,0 -0.3125,-0.125 -0.3125,-0.453125 0,-0.25 0.03125,-0.3125 0.0625,-0.484375 z m 0,0"
               id="id-f45279cc-5cb0-4761-b55e-a2b31ea36d2b" />
          </g>
          <g
             id="id-a0078f1a-89cf-4190-b596-1e8cfb544988">
            <path
               d="M 3.484375,-0.5625 C 3.59375,-0.15625 3.953125,0.109375 4.375,0.109375 4.71875,0.109375 4.953125,-0.125 5.109375,-0.4375 5.28125,-0.796875 5.40625,-1.40625 5.40625,-1.421875 c 0,-0.109375 -0.078125,-0.109375 -0.109375,-0.109375 -0.109375,0 -0.109375,0.046875 -0.140625,0.1875 -0.140625,0.5625 -0.328125,1.234375 -0.75,1.234375 -0.203125,0 -0.3125,-0.125 -0.3125,-0.453125 0,-0.21875 0.125,-0.6875 0.203125,-1.046875 L 4.578125,-2.6875 C 4.609375,-2.828125 4.703125,-3.203125 4.75,-3.359375 4.796875,-3.59375 4.890625,-3.96875 4.890625,-4.03125 c 0,-0.171875 -0.140625,-0.265625 -0.28125,-0.265625 -0.046875,0 -0.3125,0.015625 -0.390625,0.34375 -0.1875,0.734375 -0.625,2.484375 -0.75,3 -0.015625,0.046875 -0.40625,0.84375 -1.140625,0.84375 -0.515625,0 -0.609375,-0.453125 -0.609375,-0.8125 0,-0.5625 0.28125,-1.34375 0.53125,-2.03125 0.125,-0.3125 0.171875,-0.453125 0.171875,-0.640625 0,-0.4375 -0.3125,-0.8125 -0.8125,-0.8125 -0.953125,0 -1.3125,1.453125 -1.3125,1.53125 0,0.109375 0.09375,0.109375 0.109375,0.109375 0.109375,0 0.109375,-0.03125 0.15625,-0.1875 0.25,-0.859375 0.640625,-1.234375 1.015625,-1.234375 0.09375,0 0.25,0.015625 0.25,0.328125 0,0.234375 -0.109375,0.53125 -0.171875,0.671875 -0.375,1 -0.578125,1.609375 -0.578125,2.09375 0,0.953125 0.6875,1.203125 1.21875,1.203125 0.65625,0 1.015625,-0.453125 1.1875,-0.671875 z m 0,0"
               id="id-f2bac655-092f-4448-9140-121dc3d00a83" />
          </g>
          <g
             id="id-f3b83948-68e6-48de-b670-9c3b78c90176" />
          <g
             id="id-901d436c-0e73-4671-a869-9fcd886d7b0a">
            <path
               d="m 4.078125,-2.296875 h 2.78125 C 7,-2.296875 7.1875,-2.296875 7.1875,-2.5 7.1875,-2.6875 7,-2.6875 6.859375,-2.6875 h -2.78125 v -2.796875 c 0,-0.140625 0,-0.328125 -0.203125,-0.328125 -0.203125,0 -0.203125,0.1875 -0.203125,0.328125 V -2.6875 h -2.78125 c -0.140625,0 -0.328125,0 -0.328125,0.1875 0,0.203125 0.1875,0.203125 0.328125,0.203125 h 2.78125 V 0.5 c 0,0.140625 0,0.328125 0.203125,0.328125 0.203125,0 0.203125,-0.1875 0.203125,-0.328125 z m 0,0"
               id="id-ef4dfe1d-2e89-4a28-b72a-73e8683d7e41" />
          </g>
        </g>
      </defs>
      <g
         fill="#000000"
         fill-opacity="1"
         id="id-e369ce03-13b3-48cd-9db5-e211a42ff7f8"
         transform="translate(-149.118,-128.531)">
        <g
           transform="translate(148.712,134.765)"
           id="g18147">
          <path
             d="M 3.71875,-3.765625 C 3.53125,-4.140625 3.25,-4.40625 2.796875,-4.40625 c -1.15625,0 -2.390625,1.46875 -2.390625,2.921875 0,0.9375 0.546875,1.59375 1.3125,1.59375 0.203125,0 0.703125,-0.046875 1.296875,-0.75 0.078125,0.421875 0.4375,0.75 0.90625,0.75 0.359375,0 0.578125,-0.234375 0.75,-0.546875 0.15625,-0.359375 0.296875,-0.96875 0.296875,-0.984375 0,-0.109375 -0.09375,-0.109375 -0.125,-0.109375 -0.09375,0 -0.109375,0.046875 -0.140625,0.1875 -0.171875,0.640625 -0.34375,1.234375 -0.75,1.234375 -0.28125,0 -0.296875,-0.265625 -0.296875,-0.453125 0,-0.21875 0.015625,-0.3125 0.125,-0.75 C 3.890625,-1.71875 3.90625,-1.828125 4,-2.203125 L 4.359375,-3.59375 c 0.0625,-0.28125 0.0625,-0.296875 0.0625,-0.34375 0,-0.171875 -0.109375,-0.265625 -0.28125,-0.265625 -0.25,0 -0.390625,0.21875 -0.421875,0.4375 z M 3.078125,-1.1875 C 3.015625,-1 3.015625,-0.984375 2.875,-0.8125 2.4375,-0.265625 2.03125,-0.109375 1.75,-0.109375 c -0.5,0 -0.640625,-0.546875 -0.640625,-0.9375 0,-0.5 0.3125,-1.71875 0.546875,-2.1875 0.3125,-0.578125 0.75,-0.953125 1.15625,-0.953125 0.640625,0 0.78125,0.8125 0.78125,0.875 0,0.0625 -0.015625,0.125 -0.03125,0.171875 z m 0,0"
             id="id-3603a323-f1a5-41c0-90d9-cddafbd857f3" />
        </g>
      </g>
      <g
         fill="#000000"
         fill-opacity="1"
         id="id-f4263d5a-d540-486c-a170-c8dc849f1a95"
         transform="translate(-149.118,-128.531)">
        <g
           transform="translate(156.192,134.765)"
           id="g18151">
          <path
             d="m 4.078125,-2.296875 h 2.78125 C 7,-2.296875 7.1875,-2.296875 7.1875,-2.5 7.1875,-2.6875 7,-2.6875 6.859375,-2.6875 h -2.78125 v -2.796875 c 0,-0.140625 0,-0.328125 -0.203125,-0.328125 -0.203125,0 -0.203125,0.1875 -0.203125,0.328125 V -2.6875 h -2.78125 c -0.140625,0 -0.328125,0 -0.328125,0.1875 0,0.203125 0.1875,0.203125 0.328125,0.203125 h 2.78125 V 0.5 c 0,0.140625 0,0.328125 0.203125,0.328125 0.203125,0 0.203125,-0.1875 0.203125,-0.328125 z m 0,0"
             id="id-9b213219-475a-433d-8f14-e5e989938b7a" />
        </g>
      </g>
      <g
         fill="#000000"
         fill-opacity="1"
         id="id-7d52ada6-5a05-4e82-bcd9-c3fbb6b290e1"
         transform="translate(-149.118,-128.531)">
        <g
           transform="translate(166.155,134.765)"
           id="g18155">
          <path
             d="m 2.046875,-3.984375 h 0.9375 c 0.203125,0 0.3125,0 0.3125,-0.203125 0,-0.109375 -0.109375,-0.109375 -0.28125,-0.109375 h -0.875 C 2.5,-5.71875 2.546875,-5.90625 2.546875,-5.96875 c 0,-0.171875 -0.125,-0.265625 -0.296875,-0.265625 -0.03125,0 -0.3125,0 -0.390625,0.359375 L 1.46875,-4.296875 h -0.9375 c -0.203125,0 -0.296875,0 -0.296875,0.1875 0,0.125 0.078125,0.125 0.28125,0.125 h 0.875 C 0.671875,-1.15625 0.625,-0.984375 0.625,-0.8125 0.625,-0.265625 1,0.109375 1.546875,0.109375 2.5625,0.109375 3.125,-1.34375 3.125,-1.421875 3.125,-1.53125 3.046875,-1.53125 3.015625,-1.53125 2.921875,-1.53125 2.90625,-1.5 2.859375,-1.390625 2.4375,-0.34375 1.90625,-0.109375 1.5625,-0.109375 c -0.203125,0 -0.3125,-0.125 -0.3125,-0.453125 0,-0.25 0.03125,-0.3125 0.0625,-0.484375 z m 0,0"
             id="id-7bcdbf13-5edd-4930-b9ec-d77586ef8349" />
        </g>
        <g
           transform="translate(169.752,134.765)"
           id="g18158">
          <path
             d="M 3.484375,-0.5625 C 3.59375,-0.15625 3.953125,0.109375 4.375,0.109375 4.71875,0.109375 4.953125,-0.125 5.109375,-0.4375 5.28125,-0.796875 5.40625,-1.40625 5.40625,-1.421875 c 0,-0.109375 -0.078125,-0.109375 -0.109375,-0.109375 -0.109375,0 -0.109375,0.046875 -0.140625,0.1875 -0.140625,0.5625 -0.328125,1.234375 -0.75,1.234375 -0.203125,0 -0.3125,-0.125 -0.3125,-0.453125 0,-0.21875 0.125,-0.6875 0.203125,-1.046875 L 4.578125,-2.6875 C 4.609375,-2.828125 4.703125,-3.203125 4.75,-3.359375 4.796875,-3.59375 4.890625,-3.96875 4.890625,-4.03125 c 0,-0.171875 -0.140625,-0.265625 -0.28125,-0.265625 -0.046875,0 -0.3125,0.015625 -0.390625,0.34375 -0.1875,0.734375 -0.625,2.484375 -0.75,3 -0.015625,0.046875 -0.40625,0.84375 -1.140625,0.84375 -0.515625,0 -0.609375,-0.453125 -0.609375,-0.8125 0,-0.5625 0.28125,-1.34375 0.53125,-2.03125 0.125,-0.3125 0.171875,-0.453125 0.171875,-0.640625 0,-0.4375 -0.3125,-0.8125 -0.8125,-0.8125 -0.953125,0 -1.3125,1.453125 -1.3125,1.53125 0,0.109375 0.09375,0.109375 0.109375,0.109375 0.109375,0 0.109375,-0.03125 0.15625,-0.1875 0.25,-0.859375 0.640625,-1.234375 1.015625,-1.234375 0.09375,0 0.25,0.015625 0.25,0.328125 0,0.234375 -0.109375,0.53125 -0.171875,0.671875 -0.375,1 -0.578125,1.609375 -0.578125,2.09375 0,0.953125 0.6875,1.203125 1.21875,1.203125 0.65625,0 1.015625,-0.453125 1.1875,-0.671875 z m 0,0"
             id="id-de1d2862-fd79-426f-b2d5-285a4d6b787d" />
        </g>
      </g>
    </g>
    <g
       transform="matrix(1.6393961,0,0,1.5580962,77.284309,42.082944)"
       ns2:version="1.8.1"
       ns2:texconverter="pdflatex"
       ns2:pdfconverter="inkscape"
       ns2:text="$u$"
       ns2:preamble="C:\Users\BIKRAM HALDER\AppData\Roaming\inkscape\extensions\textext\default_packages.tex"
       ns2:scale="3.091727230748457"
       ns2:alignment="middle center"
       ns2:stroke-to-path="0"
       ns2:jacobian_sqrt="1.09069"
       id="g24434">
      <defs
         id="id-6e93268d-21dc-42aa-95fe-f1356ad8d18b">
        <g
           id="id-7feb3b15-2752-4662-afa3-a02eca6a10d1">
          <g
             id="id-399a4f9b-81a5-479f-9c15-2e9555e45fd3" />
          <g
             id="id-6ca0e6d3-f4da-4e29-ae96-35785c2589ef">
            <path
               d="M 3.484375,-0.5625 C 3.59375,-0.15625 3.953125,0.109375 4.375,0.109375 4.71875,0.109375 4.953125,-0.125 5.109375,-0.4375 5.28125,-0.796875 5.40625,-1.40625 5.40625,-1.421875 c 0,-0.109375 -0.078125,-0.109375 -0.109375,-0.109375 -0.109375,0 -0.109375,0.046875 -0.140625,0.1875 -0.140625,0.5625 -0.328125,1.234375 -0.75,1.234375 -0.203125,0 -0.3125,-0.125 -0.3125,-0.453125 0,-0.21875 0.125,-0.6875 0.203125,-1.046875 L 4.578125,-2.6875 C 4.609375,-2.828125 4.703125,-3.203125 4.75,-3.359375 4.796875,-3.59375 4.890625,-3.96875 4.890625,-4.03125 c 0,-0.171875 -0.140625,-0.265625 -0.28125,-0.265625 -0.046875,0 -0.3125,0.015625 -0.390625,0.34375 -0.1875,0.734375 -0.625,2.484375 -0.75,3 -0.015625,0.046875 -0.40625,0.84375 -1.140625,0.84375 -0.515625,0 -0.609375,-0.453125 -0.609375,-0.8125 0,-0.5625 0.28125,-1.34375 0.53125,-2.03125 0.125,-0.3125 0.171875,-0.453125 0.171875,-0.640625 0,-0.4375 -0.3125,-0.8125 -0.8125,-0.8125 -0.953125,0 -1.3125,1.453125 -1.3125,1.53125 0,0.109375 0.09375,0.109375 0.109375,0.109375 0.109375,0 0.109375,-0.03125 0.15625,-0.1875 0.25,-0.859375 0.640625,-1.234375 1.015625,-1.234375 0.09375,0 0.25,0.015625 0.25,0.328125 0,0.234375 -0.109375,0.53125 -0.171875,0.671875 -0.375,1 -0.578125,1.609375 -0.578125,2.09375 0,0.953125 0.6875,1.203125 1.21875,1.203125 0.65625,0 1.015625,-0.453125 1.1875,-0.671875 z m 0,0"
               id="id-9464baf0-c81a-42c7-9534-d295cd110a84" />
          </g>
        </g>
      </defs>
      <g
         fill="#000000"
         fill-opacity="1"
         id="id-12caeda7-209d-453d-a45e-97bb800c33aa"
         transform="translate(-149.009,-130.359)">
        <g
           transform="translate(148.712,134.765)"
           id="g24431">
          <path
             d="M 3.484375,-0.5625 C 3.59375,-0.15625 3.953125,0.109375 4.375,0.109375 4.71875,0.109375 4.953125,-0.125 5.109375,-0.4375 5.28125,-0.796875 5.40625,-1.40625 5.40625,-1.421875 c 0,-0.109375 -0.078125,-0.109375 -0.109375,-0.109375 -0.109375,0 -0.109375,0.046875 -0.140625,0.1875 -0.140625,0.5625 -0.328125,1.234375 -0.75,1.234375 -0.203125,0 -0.3125,-0.125 -0.3125,-0.453125 0,-0.21875 0.125,-0.6875 0.203125,-1.046875 L 4.578125,-2.6875 C 4.609375,-2.828125 4.703125,-3.203125 4.75,-3.359375 4.796875,-3.59375 4.890625,-3.96875 4.890625,-4.03125 c 0,-0.171875 -0.140625,-0.265625 -0.28125,-0.265625 -0.046875,0 -0.3125,0.015625 -0.390625,0.34375 -0.1875,0.734375 -0.625,2.484375 -0.75,3 -0.015625,0.046875 -0.40625,0.84375 -1.140625,0.84375 -0.515625,0 -0.609375,-0.453125 -0.609375,-0.8125 0,-0.5625 0.28125,-1.34375 0.53125,-2.03125 0.125,-0.3125 0.171875,-0.453125 0.171875,-0.640625 0,-0.4375 -0.3125,-0.8125 -0.8125,-0.8125 -0.953125,0 -1.3125,1.453125 -1.3125,1.53125 0,0.109375 0.09375,0.109375 0.109375,0.109375 0.109375,0 0.109375,-0.03125 0.15625,-0.1875 0.25,-0.859375 0.640625,-1.234375 1.015625,-1.234375 0.09375,0 0.25,0.015625 0.25,0.328125 0,0.234375 -0.109375,0.53125 -0.171875,0.671875 -0.375,1 -0.578125,1.609375 -0.578125,2.09375 0,0.953125 0.6875,1.203125 1.21875,1.203125 0.65625,0 1.015625,-0.453125 1.1875,-0.671875 z m 0,0"
             id="id-654cb585-9205-4e3e-ab98-847d1bad8ea5" />
        </g>
      </g>
    </g>
    <path
       style="display:inline;fill:none;stroke:#000000;stroke-width:0.762064;stroke-linecap:round;stroke-linejoin:miter;stroke-miterlimit:0;stroke-dasharray:none;stroke-opacity:1;marker-end:url(#Arrow2-2)"
       d="M 69.071246,62.599361 107.78791,40.88698 107.59577,40.96384"
       id="path11727-6" />
  </g>
</svg>
